# xmcd
#
# Track frame offsets:
#	150
#	17982
#	39112
#	61732
#	79167
#	100070
#	115035
#	134800
#	151620
#	170337
#	188062
#	199885
#	217355
#	243905
#	261902
#
# Disc length: 3753 seconds
#
# Revision: 1
# Processed by: cddbd v1.5.2PL0 Copyright (c) Steve Scherf et al.
# Submitted via: audiograbber 1.83.01
#
DISCID=ca0ea70f
DTITLE=Too Short - Married To The Game
DYEAR=2003
DGENRE=Rap
TTITLE0=Too Short, Jagged Edge, Jazze Pha - Choosin'
TTITLE1=Too Short - What She Gonna Do
TTITLE2=Too Short, Oobie - Thats How It Goes Down
TTITLE3=Too Short, Petey Pablo, N.O.R.E. - You Can't Fuck With Us
TTITLE4=Too Short, Lil Jon, The Eastside Boyz - Shake That Monkey
TTITLE5=Too Short - Burn Rubber
TTITLE6=Too Short, Devin The Dude, Cutty Cartel - Hey, Lets Go
TTITLE7=Too Short - Pimpandho.com
TTITLE8=Too Short - Hobo Hoeing
TTITLE9=Too Short - Get It
TTITLE10=Too Short - Married To The Game
TTITLE11=Too Short - Califorina Girls
TTITLE12=Too Short - What's A Pimp
TTITLE13=Too Short - Don't Act Like That
TTITLE14=Too Short - Short Short
EXTD=www.RapMusicGuide.com\n
EXTT0=
EXTT1=
EXTT2=
EXTT3=
EXTT4=
EXTT5=
EXTT6=
EXTT7=
EXTT8=
EXTT9=
EXTT10=
EXTT11=
EXTT12=
EXTT13=
EXTT14=
PLAYORDER=
